<svg width="33" height="31" viewBox="0 0 33 31" fill="none" xmlns="http://www.w3.org/2000/svg">
<path d="M33 16.2629C33 17.9886 32.7363 19.6519 32.2435 21.2134C30.3466 20.8919 28.5607 20.2441 26.9437 19.3304C22.0972 16.596 18.773 11.4835 18.5532 5.57517C18.5439 5.36929 18.5416 5.15877 18.5416 4.95057C18.5416 3.2248 18.8053 1.56151 19.2981 0C21.195 0.321556 22.9809 0.969298 24.5979 1.88307C24.3111 2.85468 24.1584 3.88642 24.1584 4.95057C24.1584 6.76655 24.6026 8.47613 25.3891 9.97981C25.6158 10.4147 25.8726 10.8334 26.1525 11.2313C27.7464 13.4822 30.1754 15.1016 32.9884 15.6359C32.9977 15.8418 33 16.05 33 16.2582V16.2629Z" fill="#007BFF"/>
<path d="M25.2737 23.9779C24.4617 23.6263 23.6798 23.2168 22.9326 22.7541C17.7322 19.5386 14.246 13.7991 14.2021 7.25698C14.2021 7.21303 14.2021 7.17139 14.2021 7.12743C14.2021 6.30851 14.2553 5.49884 14.3617 4.70767C14.3386 3.07676 14.0772 1.50367 13.6145 0.020813C11.9029 0.302617 10.2385 0.90785 8.32196 1.91657C8.67501 3.37922 8.72545 3.83315 8.74491 5.13332C8.71715 5.46413 8.69633 5.79494 8.68245 6.12806C8.66857 6.45887 8.66163 6.79431 8.66163 7.12975C8.66163 10.1903 9.23997 13.1167 10.2925 15.8095C11.1253 17.94 12.2542 19.9226 13.6307 21.7039C15.6225 24.2809 18.1278 26.4439 20.9894 28.0355C21.3434 28.2321 21.7042 28.4218 22.0697 28.6C23.2154 29.2818 24.1232 30.0887 24.5771 30.6435C26.0902 29.8365 27.9734 28.216 28.9381 27.1102C27.8785 25.8957 26.6455 24.8385 25.2737 23.9779Z" fill="#007BFF"/>
<path d="M14.3566 4.95519C14.3566 5.17264 14.352 5.38548 14.345 5.60062C14.3242 6.16045 14.2733 6.71334 14.197 7.25698C13.7436 10.5072 12.344 13.4521 10.2851 15.8071C9.07754 17.1882 7.64327 18.368 6.04013 19.2841C4.42773 20.2071 2.64415 20.8664 0.74952 21.1996C0.261405 19.6427 0 17.984 0 16.2652C0 16.05 0.00462386 15.8349 0.0115639 15.6221C4.61511 14.699 8.1684 10.8681 8.67733 6.12806C8.71203 5.79956 8.73286 5.46876 8.7398 5.13332C8.7398 5.07317 8.7398 5.01534 8.7398 4.95519C8.7398 3.90724 8.59174 2.894 8.31645 1.93627C8.6542 1.74195 9.0012 1.56151 9.35283 1.39264C10.683 0.751838 12.1103 0.284535 13.6094 0.020813C14.072 1.50367 14.3358 3.07676 14.3566 4.70767C14.3589 4.78864 14.3589 4.87191 14.3589 4.95519H14.3566Z" fill="#007BFF"/>
<path d="M28.9271 27.1026C27.9625 28.2084 26.8521 29.1823 25.6283 29.9989C25.2836 30.2302 24.9297 30.4454 24.5688 30.6489C23.8424 29.8439 22.9957 29.1499 22.0588 28.5901C21.7118 28.3819 21.3509 28.1945 20.9785 28.0256C19.8727 27.5236 18.6675 27.202 17.3998 27.0979C17.099 27.0725 16.7983 27.0609 16.4929 27.0609C16.1876 27.0609 15.8868 27.0725 15.5884 27.0979C12.7499 27.3316 10.2215 28.6548 8.41938 30.6466C6.76997 29.719 5.29405 28.516 4.05873 27.0979C5.29637 25.6799 6.76996 24.4769 8.42169 23.5493C10.011 22.654 11.7621 22.0178 13.6198 21.6916C14.552 21.5274 15.5144 21.4418 16.4929 21.4418C18.7762 21.4418 20.9484 21.9045 22.924 22.7419C23.4885 22.9802 24.0367 23.2485 24.5665 23.5469C24.8024 23.6811 25.0361 23.8199 25.2651 23.9633C26.6346 24.8239 27.8699 25.8811 28.9294 27.0956L28.9271 27.1026Z" fill="#007BFF"/>
</svg>
