<svg width="56" height="56" viewBox="0 0 56 56" fill="none" xmlns="http://www.w3.org/2000/svg">
<ellipse opacity="0.4" cx="27.9999" cy="28" rx="27.9999" ry="28" fill="#EEEEEE"/>
<path d="M44 29.2629C44 30.9886 43.7363 32.6519 43.2435 34.2134C41.3466 33.8919 39.5607 33.2441 37.9437 32.3304C33.0972 29.596 29.773 24.4835 29.5532 18.5752C29.5439 18.3693 29.5416 18.1588 29.5416 17.9506C29.5416 16.2248 29.8053 14.5615 30.2981 13C32.195 13.3216 33.9809 13.9693 35.5979 14.8831C35.3111 15.8547 35.1584 16.8864 35.1584 17.9506C35.1584 19.7665 35.6026 21.4761 36.3891 22.9798C36.6158 23.4147 36.8726 23.8334 37.1525 24.2313C38.7464 26.4822 41.1754 28.1016 43.9884 28.6359C43.9977 28.8418 44 29.05 44 29.2582V29.2629Z" fill="#007BFF"/>
<path d="M36.2737 36.9779C35.4617 36.6263 34.6798 36.2168 33.9326 35.7541C28.7322 32.5386 25.246 26.7991 25.2021 20.257C25.2021 20.213 25.2021 20.1714 25.2021 20.1274C25.2021 19.3085 25.2553 18.4988 25.3617 17.7077C25.3386 16.0768 25.0772 14.5037 24.6145 13.0208C22.9029 13.3026 21.2385 13.9079 19.322 14.9166C19.675 16.3792 19.7255 16.8331 19.7449 18.1333C19.7172 18.4641 19.6963 18.7949 19.6824 19.1281C19.6686 19.4589 19.6616 19.7943 19.6616 20.1297C19.6616 23.1903 20.24 26.1167 21.2925 28.8095C22.1253 30.94 23.2542 32.9226 24.6307 34.7039C26.6225 37.2809 29.1278 39.4439 31.9894 41.0355C32.3434 41.2321 32.7042 41.4218 33.0697 41.6C34.2154 42.2818 35.1232 43.0887 35.5771 43.6435C37.0902 42.8365 38.9734 41.216 39.9381 40.1102C38.8785 38.8957 37.6455 37.8385 36.2737 36.9779Z" fill="#007BFF"/>
<path d="M25.3566 17.9552C25.3566 18.1726 25.352 18.3855 25.345 18.6006C25.3242 19.1605 25.2733 19.7133 25.197 20.257C24.7436 23.5072 23.344 26.4521 21.2851 28.8071C20.0775 30.1882 18.6433 31.368 17.0401 32.2841C15.4277 33.2071 13.6441 33.8664 11.7495 34.1996C11.2614 32.6427 11 30.984 11 29.2652C11 29.05 11.0046 28.8349 11.0116 28.6221C15.6151 27.699 19.1684 23.8681 19.6773 19.1281C19.712 18.7996 19.7329 18.4688 19.7398 18.1333C19.7398 18.0732 19.7398 18.0153 19.7398 17.9552C19.7398 16.9072 19.5917 15.894 19.3165 14.9363C19.6542 14.7419 20.0012 14.5615 20.3528 14.3926C21.683 13.7518 23.1103 13.2845 24.6094 13.0208C25.072 14.5037 25.3358 16.0768 25.3566 17.7077C25.3589 17.7886 25.3589 17.8719 25.3589 17.9552H25.3566Z" fill="#007BFF"/>
<path d="M39.9271 40.1026C38.9625 41.2084 37.8521 42.1823 36.6283 42.9989C36.2836 43.2302 35.9297 43.4454 35.5688 43.6489C34.8424 42.8439 33.9957 42.1499 33.0588 41.5901C32.7118 41.3819 32.3509 41.1945 31.9785 41.0256C30.8727 40.5236 29.6675 40.202 28.3998 40.0979C28.099 40.0725 27.7983 40.0609 27.4929 40.0609C27.1876 40.0609 26.8868 40.0725 26.5884 40.0979C23.7499 40.3316 21.2215 41.6548 19.4194 43.6466C17.77 42.719 16.2941 41.516 15.0587 40.0979C16.2964 38.6799 17.77 37.4769 19.4217 36.5493C21.011 35.654 22.7621 35.0178 24.6198 34.6916C25.552 34.5274 26.5144 34.4418 27.4929 34.4418C29.7762 34.4418 31.9484 34.9045 33.924 35.7419C34.4885 35.9802 35.0367 36.2485 35.5665 36.5469C35.8024 36.6811 36.0361 36.8199 36.2651 36.9633C37.6346 37.8239 38.8699 38.8811 39.9294 40.0956L39.9271 40.1026Z" fill="#007BFF"/>
</svg>
