<svg width="148" height="153" viewBox="0 0 148 153" fill="none" xmlns="http://www.w3.org/2000/svg">
<path opacity="0.4" d="M207.146 62.0847C207.146 72.9175 205.491 83.3584 202.398 93.1603C190.491 91.1418 179.28 87.0758 169.13 81.3399C138.708 64.1757 117.841 32.0837 116.461 -5.00372C116.403 -6.29612 116.389 -7.61757 116.389 -8.92449C116.389 -19.7574 118.044 -30.1981 121.137 -40C133.045 -37.9815 144.255 -33.9156 154.405 -28.1796C152.605 -22.0807 151.646 -15.6043 151.646 -8.92449C151.646 2.47472 154.434 13.206 159.372 22.6449C160.795 25.3749 162.407 28.0032 164.164 30.5009C174.169 44.6301 189.416 54.7949 207.074 58.1494C207.132 59.4417 207.146 60.7487 207.146 62.0556V62.0847Z" fill="#007BFF"/>
<path opacity="0.6" d="M158.647 110.513C153.55 108.306 148.642 105.736 143.952 102.831C111.308 82.6468 89.4247 46.6195 89.1488 5.55326C89.1488 5.27735 89.1488 5.01597 89.1488 4.74007C89.1488 -0.400475 89.4828 -5.48287 90.1508 -10.4492C90.0056 -20.6867 88.3647 -30.5612 85.4604 -39.8694C74.7167 -38.1004 64.269 -34.3013 52.2383 -27.9694C54.4545 -18.7881 54.7711 -15.9387 54.8933 -7.77728C54.719 -5.70074 54.5883 -3.62421 54.5012 -1.53314C54.414 0.543404 54.3705 2.64901 54.3705 4.7546C54.3705 23.9663 58.0008 42.3357 64.608 59.2385C69.8356 72.6126 76.9219 85.0574 85.5621 96.2388C98.0648 112.415 113.791 125.993 131.754 135.984C133.976 137.218 136.241 138.409 138.535 139.527C145.727 143.806 151.425 148.872 154.275 152.354C163.773 147.289 175.594 137.116 181.649 130.175C174.998 122.551 167.258 115.915 158.647 110.513Z" fill="#007BFF"/>
<path opacity="0.4" d="M90.1186 -8.89546C90.1186 -7.53046 90.0896 -6.19444 90.046 -4.84396C89.9153 -1.32981 89.5959 2.14074 89.1167 5.55324C86.2705 25.9557 77.4852 44.4413 64.5613 59.224C56.9812 67.8932 47.9781 75.299 37.9149 81.0494C27.7936 86.8434 16.5977 90.982 4.70486 93.0731C1.64088 83.3003 0 72.8885 0 62.0992C0 60.7487 0.0290247 59.3982 0.0725883 58.0623C28.9698 52.2683 51.2744 28.221 54.469 -1.53315C54.6869 -3.59518 54.8176 -5.6717 54.8611 -7.77729C54.8611 -8.15485 54.8611 -8.51791 54.8611 -8.89546C54.8611 -15.4736 53.9318 -21.8339 52.2037 -27.8457C54.3238 -29.0655 56.502 -30.1981 58.7093 -31.2582C67.059 -35.2806 76.0185 -38.2139 85.4283 -39.8694C88.3325 -30.5612 89.988 -20.6867 90.1186 -10.4492C90.1332 -9.94091 90.1332 -9.41823 90.1332 -8.89546H90.1186Z" fill="#007BFF"/>
<path opacity="0.4" d="M181.58 130.127C175.525 137.068 168.555 143.182 160.873 148.308C158.709 149.76 156.488 151.111 154.222 152.388C149.663 147.335 144.348 142.979 138.467 139.464C136.289 138.157 134.023 136.981 131.685 135.921C124.744 132.77 117.179 130.752 109.221 130.098C107.333 129.938 105.446 129.866 103.529 129.866C101.612 129.866 99.7243 129.938 97.8511 130.098C80.0336 131.565 64.1619 139.871 52.8499 152.374C42.4962 146.551 33.2317 139 25.4774 130.098C33.2462 121.197 42.4962 113.646 52.8643 107.823C62.8404 102.203 73.833 98.2094 85.4935 96.1619C91.3456 95.1309 97.3864 94.5937 103.529 94.5937C117.861 94.5937 131.497 97.4979 143.898 102.755C147.441 104.25 150.883 105.935 154.208 107.808C155.689 108.65 157.156 109.521 158.593 110.422C167.19 115.824 174.944 122.46 181.595 130.084L181.58 130.127Z" fill="#007BFF"/>
</svg>
